<?xml version="1.0" encoding="iso-8859-1"?>
<!-- Generator: Adobe Illustrator 19.0.0, SVG Export Plug-In . SVG Version: 6.00 Build 0)  -->
<svg version="1.1" id="Capa_1" xmlns="http://www.w3.org/2000/svg" xmlns:xlink="http://www.w3.org/1999/xlink" x="0px" y="0px"
	 viewBox="0 0 512.002 512.002" style="enable-background:new 0 0 512.002 512.002;" xml:space="preserve">
<g>
	<g>
		<path d="M333.067,34.929H92.469c-4.143,0-7.5,3.357-7.5,7.5c0,4.143,3.358,7.5,7.5,7.5h240.598c4.143,0,7.5-3.357,7.5-7.5
			C340.567,38.286,337.21,34.929,333.067,34.929z"/>
	</g>
</g>
<g>
	<g>
		<path d="M365.687,33.099c-4.143,0-7.5,3.357-7.5,7.5v1.171c0,4.143,3.357,7.5,7.5,7.5c4.143,0,7.5-3.358,7.5-7.5v-1.171
			C373.187,36.456,369.83,33.099,365.687,33.099z"/>
	</g>
</g>
<g>
	<g>
		<path d="M392.61,33.099c-4.143,0-7.5,3.357-7.5,7.5v1.171c0,4.143,3.357,7.5,7.5,7.5s7.5-3.358,7.5-7.5v-1.171
			C400.11,36.456,396.753,33.099,392.61,33.099z"/>
	</g>
</g>
<g>
	<g>
		<path d="M419.534,33.099c-4.143,0-7.5,3.357-7.5,7.5v1.171c0,4.143,3.357,7.5,7.5,7.5c4.143,0,7.5-3.358,7.5-7.5v-1.171
			C427.034,36.456,423.677,33.099,419.534,33.099z"/>
	</g>
</g>
<g>
	<g>
		<path d="M124.644,110.855H95.135c-4.143,0-7.5,3.357-7.5,7.5s3.358,7.5,7.5,7.5h29.509c4.143,0,7.5-3.357,7.5-7.5
			S128.787,110.855,124.644,110.855z"/>
	</g>
</g>
<g>
	<g>
		<path d="M197.373,145.763H95.135c-4.143,0-7.5,3.357-7.5,7.5c0,4.143,3.358,7.5,7.5,7.5h102.238c4.143,0,7.5-3.357,7.5-7.5
			C204.873,149.12,201.516,145.763,197.373,145.763z"/>
	</g>
</g>
<g>
	<g>
		<path d="M416.867,170.443H95.135c-4.143,0-7.5,3.357-7.5,7.5c0,4.143,3.358,7.5,7.5,7.5h321.732c4.143,0,7.5-3.357,7.5-7.5
			C424.367,173.8,421.01,170.443,416.867,170.443z"/>
	</g>
</g>
<g>
	<g>
		<path d="M263.973,145.763h-33.984c-4.143,0-7.5,3.357-7.5,7.5c0,4.143,3.357,7.5,7.5,7.5h33.984c4.143,0,7.5-3.357,7.5-7.5
			C271.473,149.12,268.116,145.763,263.973,145.763z"/>
	</g>
</g>
<g>
	<g>
		<path d="M416.868,145.763H294.766c-4.143,0-7.5,3.357-7.5,7.5c0,4.143,3.357,7.5,7.5,7.5h122.102c4.143,0,7.5-3.357,7.5-7.5
			C424.368,149.12,421.011,145.763,416.868,145.763z"/>
	</g>
</g>
<g>
	<g>
		<path d="M51.96,412.944c-4.143,0-7.5,3.357-7.5,7.5v1.294c0,4.143,3.358,7.5,7.5,7.5c4.143,0,7.5-3.357,7.5-7.5v-1.294
			C59.46,416.301,56.103,412.944,51.96,412.944z"/>
	</g>
</g>
<g>
	<g>
		<path d="M71.992,412.944c-4.143,0-7.5,3.357-7.5,7.5v1.294c0,4.143,3.357,7.5,7.5,7.5s7.5-3.357,7.5-7.5v-1.294
			C79.492,416.301,76.135,412.944,71.992,412.944z"/>
	</g>
</g>
<g>
	<g>
		<path d="M71.992,437.707H52.104c-4.143,0-7.5,3.357-7.5,7.5c0,4.143,3.357,7.5,7.5,7.5h19.888c4.143,0,7.5-3.357,7.5-7.5
			C79.492,441.064,76.135,437.707,71.992,437.707z"/>
	</g>
</g>
<g>
	<g>
		<path d="M105.137,456.694H52.104c-4.143,0-7.5,3.358-7.5,7.5c0,4.143,3.357,7.5,7.5,7.5h53.033c4.143,0,7.5-3.357,7.5-7.5
			S109.28,456.694,105.137,456.694z"/>
	</g>
</g>
<g>
	<g>
		<path d="M228.722,412.944c-4.143,0-7.5,3.357-7.5,7.5v1.294c0,4.143,3.357,7.5,7.5,7.5c4.143,0,7.5-3.357,7.5-7.5v-1.294
			C236.222,416.302,232.865,412.944,228.722,412.944z"/>
	</g>
</g>
<g>
	<g>
		<path d="M248.753,412.944c-4.143,0-7.5,3.357-7.5,7.5v1.294c0,4.143,3.357,7.5,7.5,7.5c4.143,0,7.5-3.357,7.5-7.5v-1.294
			C256.253,416.301,252.896,412.944,248.753,412.944z"/>
	</g>
</g>
<g>
	<g>
		<path d="M248.754,437.707h-19.888c-4.143,0-7.5,3.358-7.5,7.5c0,4.143,3.357,7.5,7.5,7.5h19.888c4.143,0,7.5-3.357,7.5-7.5
			C256.254,441.064,252.897,437.707,248.754,437.707z"/>
	</g>
</g>
<g>
	<g>
		<path d="M281.899,456.694h-53.033c-4.143,0-7.5,3.357-7.5,7.5s3.357,7.5,7.5,7.5h53.033c4.143,0,7.5-3.357,7.5-7.5
			S286.042,456.694,281.899,456.694z"/>
	</g>
</g>
<g>
	<g>
		<path d="M500.248,409.119l-34.284-34.284c-1.407-1.406-3.314-2.196-5.304-2.196h-20.396v-55.783c0-0.006-0.001-0.013-0.001-0.019
			c8.336-3.258,14.259-11.371,14.259-20.847c0-9.709-6.217-17.99-14.877-21.08v-40.854h31.683c8.632,0,15.654-7.022,15.654-15.655
			V25.341C486.981,11.368,475.613,0,461.64,0H108.976c-4.143,0-7.5,3.357-7.5,7.5c0,4.143,3.357,7.5,7.5,7.5H461.64
			c5.702,0,10.341,4.639,10.341,10.341v42.027H40.022V25.341C40.022,19.639,44.661,15,50.363,15h27.995c4.143,0,7.5-3.357,7.5-7.5
			c0-4.143-3.357-7.5-7.5-7.5H50.363C36.39,0,25.022,11.368,25.022,25.341v193.058c0,8.633,7.022,15.655,15.654,15.655H71.12v40.854
			c-8.66,3.091-14.877,11.371-14.877,21.08c0,9.938,6.514,18.381,15.496,21.291v55.359h-54.68c-4.143,0-7.5,3.357-7.5,7.5V504.5
			c0,4.143,3.357,7.5,7.5,7.5h124.361c4.143,0,7.5-3.357,7.5-7.5v-90.076c0-1.989-0.79-3.896-2.196-5.303l-34.283-34.285
			c-1.407-1.406-3.314-2.196-5.304-2.196H86.74v-55.783c0-0.006-0.001-0.013-0.001-0.019c8.336-3.258,14.259-11.371,14.259-20.847
			c0-9.709-6.217-17.99-14.877-21.08v-40.854h162.381V372.64h-54.68c-4.143,0-7.5,3.357-7.5,7.5v124.361c0,4.143,3.357,7.5,7.5,7.5
			h28.537c4.143,0,7.5-3.357,7.5-7.5c0-4.143-3.357-7.5-7.5-7.5h-21.037V387.64h79.47l29.89,29.891v79.47h-57.704
			c-4.143,0-7.5,3.357-7.5,7.5c0,4.143,3.357,7.5,7.5,7.5h65.204c4.143,0,7.5-3.357,7.5-7.5v-90.077c0-1.989-0.79-3.896-2.196-5.303
			l-34.283-34.285c-1.407-1.406-3.314-2.196-5.304-2.196h-20.396V234.054h70.191c4.143,0,7.5-3.357,7.5-7.5s-3.357-7.5-7.5-7.5
			H40.676c-0.36,0-0.654-0.294-0.654-0.655V82.368h431.959v136.03c0,0.361-0.294,0.655-0.654,0.655H364.311
			c-4.143,0-7.5,3.357-7.5,7.5c0,4.143,3.357,7.5,7.5,7.5h60.333v40.854c-8.66,3.091-14.877,11.371-14.877,21.08
			c0,9.938,6.514,18.381,15.496,21.291v55.359h-54.68c-4.143,0-7.5,3.357-7.5,7.5v124.361c0,4.143,3.357,7.5,7.5,7.5h124.361
			c4.143,0,7.5-3.357,7.5-7.5v-90.076C502.444,412.434,501.654,410.526,500.248,409.119z M104.03,387.639l29.889,29.89V497H24.559
			V387.639H104.03z M78.621,288.612c4.067,0,7.377,3.31,7.377,7.377c0,4.068-3.31,7.378-7.377,7.378s-7.377-3.31-7.377-7.378
			C71.244,291.922,74.553,288.612,78.621,288.612z M424.767,295.989c0-4.067,3.31-7.377,7.377-7.377s7.377,3.31,7.377,7.377
			c0,4.068-3.31,7.378-7.377,7.378C428.077,303.367,424.767,300.057,424.767,295.989z M487.445,497L487.445,497H378.084V387.639
			h79.47l29.891,29.891V497z"/>
	</g>
</g>
<g>
	<g>
		<path d="M405.484,412.944c-4.143,0-7.5,3.357-7.5,7.5v1.294c0,4.143,3.357,7.5,7.5,7.5c4.143,0,7.5-3.357,7.5-7.5v-1.294
			C412.984,416.301,409.627,412.944,405.484,412.944z"/>
	</g>
</g>
<g>
	<g>
		<path d="M425.515,412.944c-4.143,0-7.5,3.357-7.5,7.5v1.294c0,4.143,3.358,7.5,7.5,7.5c4.143,0,7.5-3.357,7.5-7.5v-1.294
			C433.015,416.301,429.658,412.944,425.515,412.944z"/>
	</g>
</g>
<g>
	<g>
		<path d="M425.515,437.707h-19.888c-4.143,0-7.5,3.357-7.5,7.5c0,4.143,3.357,7.5,7.5,7.5h19.888c4.143,0,7.5-3.357,7.5-7.5
			C433.015,441.064,429.658,437.707,425.515,437.707z"/>
	</g>
</g>
<g>
	<g>
		<path d="M458.661,456.694h-53.033c-4.143,0-7.5,3.358-7.5,7.5c0,4.143,3.357,7.5,7.5,7.5h53.033c4.143,0,7.5-3.357,7.5-7.5
			S462.804,456.694,458.661,456.694z"/>
	</g>
</g>
<g>
</g>
<g>
</g>
<g>
</g>
<g>
</g>
<g>
</g>
<g>
</g>
<g>
</g>
<g>
</g>
<g>
</g>
<g>
</g>
<g>
</g>
<g>
</g>
<g>
</g>
<g>
</g>
<g>
</g>
</svg>
