<?xml version="1.0" standalone="no"?>
<!DOCTYPE svg PUBLIC "-//W3C//DTD SVG 20010904//EN"
 "http://www.w3.org/TR/2001/REC-SVG-20010904/DTD/svg10.dtd">
<svg version="1.0" xmlns="http://www.w3.org/2000/svg"
 width="260.000000pt" height="260.000000pt" viewBox="0 0 260.000000 260.000000"
 preserveAspectRatio="xMidYMid meet">
<metadata>
Created by potrace 1.11, written by Peter Selinger 2001-2013
</metadata>
<g transform="translate(0.000000,260.000000) scale(0.100000,-0.100000)"
fill="#000000" stroke="none">
<path d="M512 1786 c2 -8 86 -267 188 -576 l185 -560 144 2 145 3 37 110 c21
61 77 225 124 365 48 140 90 261 94 267 4 7 60 -148 124 -345 65 -196 122
-367 127 -379 9 -22 14 -23 153 -23 l143 0 94 288 c52 158 136 413 187 567 51
154 93 283 93 288 0 4 -57 7 -128 7 l-127 0 -28 -87 c-69 -217 -229 -698 -236
-711 -5 -9 -13 4 -23 40 -24 82 -178 560 -188 583 -4 11 -18 55 -31 98 l-23
77 -126 0 -127 0 -21 -67 c-30 -98 -242 -726 -246 -731 -3 -2 -20 45 -39 105
-72 222 -196 609 -209 651 l-13 42 -138 0 c-115 0 -138 -2 -135 -14z"/>
<path d="M322 855 l0 -475 109 0 109 0 2 368 c2 202 2 415 0 475 l-3 107 -108
0 -109 0 0 -475z"/>
</g>
</svg>
