<svg version="1.0" xmlns="http://www.w3.org/2000/svg" width="346.667" height="346.667" viewBox="0 0 260 260"><path d="M51.2 81.4c.2.8 8.6 26.7 18.8 57.6l18.5 56 14.4-.2 14.5-.3 3.7-11c2.1-6.1 7.7-22.5 12.4-36.5 4.8-14 9-26.1 9.4-26.7.4-.7 6 14.8 12.4 34.5 6.5 19.6 12.2 36.7 12.7 37.9.9 2.2 1.4 2.3 15.3 2.3h14.3l9.4-28.8c5.2-15.8 13.6-41.3 18.7-56.7 5.1-15.4 9.3-28.3 9.3-28.8 0-.4-5.7-.7-12.8-.7h-12.7l-2.8 8.7c-6.9 21.7-22.9 69.8-23.6 71.1-.5.9-1.3-.4-2.3-4-2.4-8.2-17.8-56-18.8-58.3-.4-1.1-1.8-5.5-3.1-9.8l-2.3-7.7h-25.3l-2.1 6.7c-3 9.8-24.2 72.6-24.6 73.1-.3.2-2-4.5-3.9-10.5-7.2-22.2-19.6-60.9-20.9-65.1L78.5 80H64.7c-11.5 0-13.8.2-13.5 1.4zm-19 93.1V222H54l.2-36.8c.2-20.2.2-41.5 0-47.5l-.3-10.7H32.2v47.5z"/></svg>