<svg xmlns="http://www.w3.org/2000/svg" viewBox="0 0 512.002 512.002"><path d="M333.067 34.929H92.469a7.499 7.499 0 00-7.5 7.5 7.5 7.5 0 007.5 7.5h240.598c4.143 0 7.5-3.357 7.5-7.5s-3.357-7.5-7.5-7.5zm32.62-1.83a7.499 7.499 0 00-7.5 7.5v1.171c0 4.143 3.357 7.5 7.5 7.5a7.5 7.5 0 007.5-7.5v-1.171c0-4.143-3.357-7.5-7.5-7.5zm26.923 0a7.499 7.499 0 00-7.5 7.5v1.171c0 4.143 3.357 7.5 7.5 7.5s7.5-3.358 7.5-7.5v-1.171c0-4.143-3.357-7.5-7.5-7.5zm26.924 0a7.499 7.499 0 00-7.5 7.5v1.171c0 4.143 3.357 7.5 7.5 7.5a7.5 7.5 0 007.5-7.5v-1.171c0-4.143-3.357-7.5-7.5-7.5zm-294.89 77.756H95.135c-4.143 0-7.5 3.357-7.5 7.5s3.358 7.5 7.5 7.5h29.509c4.143 0 7.5-3.357 7.5-7.5s-3.357-7.5-7.5-7.5zm72.729 34.908H95.135a7.499 7.499 0 00-7.5 7.5 7.5 7.5 0 007.5 7.5h102.238c4.143 0 7.5-3.357 7.5-7.5s-3.357-7.5-7.5-7.5zm219.494 24.68H95.135a7.499 7.499 0 00-7.5 7.5 7.5 7.5 0 007.5 7.5h321.732c4.143 0 7.5-3.357 7.5-7.5s-3.357-7.5-7.5-7.5zm-152.894-24.68h-33.984a7.499 7.499 0 00-7.5 7.5c0 4.143 3.357 7.5 7.5 7.5h33.984c4.143 0 7.5-3.357 7.5-7.5s-3.357-7.5-7.5-7.5zm152.895 0H294.766a7.499 7.499 0 00-7.5 7.5c0 4.143 3.357 7.5 7.5 7.5h122.102c4.143 0 7.5-3.357 7.5-7.5s-3.357-7.5-7.5-7.5zM51.96 412.944a7.499 7.499 0 00-7.5 7.5v1.294a7.5 7.5 0 007.5 7.5c4.143 0 7.5-3.357 7.5-7.5v-1.294c0-4.143-3.357-7.5-7.5-7.5zm20.032 0a7.499 7.499 0 00-7.5 7.5v1.294c0 4.143 3.357 7.5 7.5 7.5s7.5-3.357 7.5-7.5v-1.294c0-4.143-3.357-7.5-7.5-7.5zm0 24.763H52.104a7.499 7.499 0 00-7.5 7.5c0 4.143 3.357 7.5 7.5 7.5h19.888c4.143 0 7.5-3.357 7.5-7.5s-3.357-7.5-7.5-7.5zm33.145 18.987H52.104a7.5 7.5 0 00-7.5 7.5c0 4.143 3.357 7.5 7.5 7.5h53.033c4.143 0 7.5-3.357 7.5-7.5s-3.357-7.5-7.5-7.5zm123.585-43.75a7.499 7.499 0 00-7.5 7.5v1.294c0 4.143 3.357 7.5 7.5 7.5s7.5-3.357 7.5-7.5v-1.294a7.5 7.5 0 00-7.5-7.5zm20.031 0a7.499 7.499 0 00-7.5 7.5v1.294c0 4.143 3.357 7.5 7.5 7.5s7.5-3.357 7.5-7.5v-1.294c0-4.143-3.357-7.5-7.5-7.5zm.001 24.763h-19.888a7.5 7.5 0 00-7.5 7.5c0 4.143 3.357 7.5 7.5 7.5h19.888c4.143 0 7.5-3.357 7.5-7.5s-3.357-7.5-7.5-7.5zm33.145 18.987h-53.033c-4.143 0-7.5 3.357-7.5 7.5s3.357 7.5 7.5 7.5h53.033c4.143 0 7.5-3.357 7.5-7.5s-3.357-7.5-7.5-7.5z"/><path d="M500.248 409.119l-34.284-34.284a7.502 7.502 0 00-5.304-2.196h-20.396v-55.783l-.001-.019c8.336-3.258 14.259-11.371 14.259-20.847 0-9.709-6.217-17.99-14.877-21.08v-40.854h31.683c8.632 0 15.654-7.022 15.654-15.655V25.341C486.981 11.368 475.613 0 461.64 0H108.976a7.499 7.499 0 00-7.5 7.5c0 4.143 3.357 7.5 7.5 7.5H461.64c5.702 0 10.341 4.639 10.341 10.341v42.027H40.022V25.341C40.022 19.639 44.661 15 50.363 15h27.995c4.143 0 7.5-3.357 7.5-7.5S82.501 0 78.358 0H50.363C36.39 0 25.022 11.368 25.022 25.341v193.058c0 8.633 7.022 15.655 15.654 15.655H71.12v40.854c-8.66 3.091-14.877 11.371-14.877 21.08 0 9.938 6.514 18.381 15.496 21.291v55.359h-54.68a7.499 7.499 0 00-7.5 7.5V504.5c0 4.143 3.357 7.5 7.5 7.5H141.42c4.143 0 7.5-3.357 7.5-7.5v-90.076c0-1.989-.79-3.896-2.196-5.303l-34.283-34.285a7.502 7.502 0 00-5.304-2.196H86.74v-55.783l-.001-.019c8.336-3.258 14.259-11.371 14.259-20.847 0-9.709-6.217-17.99-14.877-21.08v-40.854h162.381V372.64h-54.68a7.499 7.499 0 00-7.5 7.5v124.361c0 4.143 3.357 7.5 7.5 7.5h28.537c4.143 0 7.5-3.357 7.5-7.5s-3.357-7.5-7.5-7.5h-21.037V387.64h79.47l29.89 29.891v79.47h-57.704a7.499 7.499 0 00-7.5 7.5c0 4.143 3.357 7.5 7.5 7.5h65.204c4.143 0 7.5-3.357 7.5-7.5v-90.077c0-1.989-.79-3.896-2.196-5.303l-34.283-34.285a7.502 7.502 0 00-5.304-2.196h-20.396V234.054h70.191c4.143 0 7.5-3.357 7.5-7.5s-3.357-7.5-7.5-7.5H40.676a.656.656 0 01-.654-.655V82.368h431.959v136.03a.656.656 0 01-.654.655H364.311a7.499 7.499 0 00-7.5 7.5c0 4.143 3.357 7.5 7.5 7.5h60.333v40.854c-8.66 3.091-14.877 11.371-14.877 21.08 0 9.938 6.514 18.381 15.496 21.291v55.359h-54.68a7.499 7.499 0 00-7.5 7.5v124.361c0 4.143 3.357 7.5 7.5 7.5h124.361c4.143 0 7.5-3.357 7.5-7.5v-90.076c0-1.988-.79-3.896-2.196-5.303zm-396.218-21.48l29.889 29.89V497H24.559V387.639h79.471zm-25.409-99.027c4.067 0 7.377 3.31 7.377 7.377 0 4.068-3.31 7.378-7.377 7.378s-7.377-3.31-7.377-7.378c0-4.067 3.309-7.377 7.377-7.377zm346.146 7.377c0-4.067 3.31-7.377 7.377-7.377s7.377 3.31 7.377 7.377c0 4.068-3.31 7.378-7.377 7.378s-7.377-3.31-7.377-7.378zM487.445 497H378.084V387.639h79.47l29.891 29.891V497z"/><path d="M405.484 412.944a7.499 7.499 0 00-7.5 7.5v1.294c0 4.143 3.357 7.5 7.5 7.5s7.5-3.357 7.5-7.5v-1.294c0-4.143-3.357-7.5-7.5-7.5zm20.031 0a7.499 7.499 0 00-7.5 7.5v1.294a7.5 7.5 0 007.5 7.5c4.143 0 7.5-3.357 7.5-7.5v-1.294c0-4.143-3.357-7.5-7.5-7.5zm0 24.763h-19.888a7.499 7.499 0 00-7.5 7.5c0 4.143 3.357 7.5 7.5 7.5h19.888c4.143 0 7.5-3.357 7.5-7.5s-3.357-7.5-7.5-7.5zm33.146 18.987h-53.033a7.5 7.5 0 00-7.5 7.5c0 4.143 3.357 7.5 7.5 7.5h53.033c4.143 0 7.5-3.357 7.5-7.5s-3.357-7.5-7.5-7.5z"/></svg>